<svg xmlns="http://www.w3.org/2000/svg" viewBox="0 0 1227.55 461.3"><title>logo</title><g id="Layer_1" data-name="Layer 1"><rect x="613.48" width="614.07" height="461.3" style="fill:#e70b89"/><rect width="615.08" height="461.3" style="fill:#003a70"/><path d="M778.58,203.47q-26.21,47.58-65.06,72.9a150.24,150.24,0,0,1-84.41,25.23c-24.52,0-44.18-5.47-59.06-16.52-14.59-11-22.09-25.58-22.06-43.66,0-19.68,8.4-36.42,24.92-49.93Q598,171,634.74,171c17.65,0,32,4,42.6,12s16,18.4,16,31.68c0,14.32-6.65,26.68-20,37-13.22,10.47-29.31,15.68-48.41,15.66a84.38,84.38,0,0,1-26.12-4c-8.22-2.69-12.43-5-12.43-7.07a1.29,1.29,0,0,1,.55-.78c.4-.17.65-.37.87-.37a15.12,15.12,0,0,1,4.49,1.68,82.66,82.66,0,0,0,32.94,6.93c16.68,0,31.35-4.61,43.81-13.81S688,230.08,688,218.37c0-10.63-4.5-19-13.26-25.6s-20.64-9.52-35.35-9.52c-23.5,0-43.16,6.23-59.28,18.59C564.08,214.36,556,229,556,246.09c0,15.61,6.49,27.89,19.41,37.16S606,297.1,628,297.1q39,0,67.18-19.39c18.83-12.88,37-34.78,54.58-65.28a210.35,210.35,0,0,0-29.54,16.11c-9.69,6.38-15,9.48-16.11,9.48-.19,0-.47-.06-.5-.16a2.17,2.17,0,0,1-.09-.53c0-2.23,4.65-6.19,14.12-12.11,9.23-6.16,21-12.22,34.91-18.54,7.23-13.26,15.29-26.47,24-39.4,8.89-13,19-26.44,30.39-40.47-13.07,6.8-22.55,11.2-28.15,13.24-5.84,1.95-10.67,2.89-14.79,2.89-6.77,0-11.94-2.1-15.54-6.35s-5.32-10.35-5.32-18.41A40,40,0,0,1,744,110a53.12,53.12,0,0,0,.86-7.07,14.72,14.72,0,0,0-1.1-6.52,3.6,3.6,0,0,0-3.39-2.18c-5.63,0-13.16,3.43-22,10.15-9.11,6.89-18.33,16.19-27.93,28.12-4.56,5.48-8.83,11.39-13.17,17.7s-6.95,9.49-8,9.49a1.16,1.16,0,0,1-.73-.48,2.3,2.3,0,0,1-.19-1c0-1.57,1.66-4.87,5.14-10.2a173.43,173.43,0,0,1,13.13-17.32q18-21.34,33.56-33c10.49-7.62,19.32-11.52,26.64-11.52,5.7,0,10,1.89,13.14,5.75s4.77,9.34,4.77,16.41c0,2.26-.34,5.54-.74,9.66s-.52,7.15-.52,9.09c0,3.16.52,5.48,1.75,7.1a6.82,6.82,0,0,0,5.57,2.31c4.77,0,11.56-2.06,20.49-6.28a240,240,0,0,0,30-17.83c4.71-3.3,11.07-7.72,18.89-13.3,12.09-8.91,19.53-13.4,22.58-13.4a5.07,5.07,0,0,1,3.32,1,3.88,3.88,0,0,1,1.29,2.91c0,2.74-5.32,6.44-15.93,11.18s-18.8,10-24.83,16.25Q813.31,130.53,784.12,192l-2.83,5.86c6.3-1.78,15.16-4.52,26.85-8.14s20-6.31,25.47-7.74c20.34-27.53,41.59-50,64.26-67.37C920.3,97.28,938,88.51,950.94,88.51c5.41,0,9.56,1.28,12.58,4.14S968,99.31,968,104.34q0,20.13-29.66,40.55-29.71,20.19-82.07,35.51c-12.7,23-22.42,42.93-29,59.7-6.8,16.86-10,29.7-10.06,38.76,0,4.24.74,7.35,2.16,9.48a7.06,7.06,0,0,0,6.49,3.35c3.44,0,8-2.15,13.87-6.35s12.58-10.57,20.4-18.89c1.75-1.8,4-4.17,6.33-6.94,2.59-3.12,4.13-4.58,5-4.58a1.74,1.74,0,0,1,1.14.38,1.2,1.2,0,0,1,.55.94c0,1.06-1,3-3.32,5.79a159.61,159.61,0,0,1-10.95,11.88c-8.56,8.54-15.69,14.76-21.66,18.53s-11.17,5.64-15.66,5.64c-5.84,0-10.64-3-14.52-8.72-3.9-6-5.84-13.49-5.84-22.6,0-10.54,2.49-22.31,7.1-35.38,4.86-13.22,11.88-27.69,21.35-43.8-9.87,2.83-18.92,5.52-27.19,8.17s-16.18,5.14-23.84,7.71m80.5-28.35q48.36-14.61,75.95-33.24c18.43-12.6,27.66-24.74,27.66-36.63,0-4-1-7-2.89-9.1-2.1-2.09-4.89-3.08-8.56-3.08-10.73,0-24.45,7.29-40.88,21.9s-33.5,34.66-51.28,60.15" style="fill:#fff"/><path d="M978.71,256.63a1.07,1.07,0,0,0-.61-1,2.6,2.6,0,0,0-1.6-.49c-.92,0-3.78,2.1-8.37,6.26s-9,7.82-13.19,11.17c-10,7.76-18.49,13.27-25.81,16.58-7.08,3.28-13.82,5-20.21,5-4.71,0-8.43-1.29-10.95-3.6-2.71-2.43-4-5.88-4-10.14a17.3,17.3,0,0,1,.43-4,75.45,75.45,0,0,1,1.41-7.83c22.77-4.19,41-10.06,54.54-17.81s20.4-15.51,20.4-23.79c0-4-1.85-7.37-5.54-10-3.91-2.46-8.7-3.83-15-3.83-10.61,0-21.69,2.67-33.34,8s-23.23,13-34.55,23.06A128.86,128.86,0,0,0,871.69,254c-2.58,2.52-3.9,4.2-3.9,4.94a.92.92,0,0,0,.46.9,5.25,5.25,0,0,0,1.38.11,6.5,6.5,0,0,0,3.3-1.24,60.4,60.4,0,0,0,4.92-4.42,50.62,50.62,0,0,0-1.51,6.38,35.52,35.52,0,0,0-.65,6,30.61,30.61,0,0,0,31.63,31.77,56,56,0,0,0,23.81-5.62c8.18-3.64,17.75-9.89,28.7-18.53,8-6.56,13.1-10.85,15.41-13.1s3.47-3.71,3.47-4.56m-55.3-26.16c10.92-9.06,20.54-13.68,28.63-13.68a6.23,6.23,0,0,1,4.59,1.87,4.85,4.85,0,0,1,2,4.09c0,7.53-6,15.46-17.91,24.1Q922.75,259.57,897.84,264a95.43,95.43,0,0,1,25.57-33.49" style="fill:#fff"/><path d="M973.52,260c1.44,0,4.33-2,8.58-6.09a116.78,116.78,0,0,1,9.1-8.17c12.37-10.67,21.72-18.12,28.15-22.23,6.4-4,11.6-6.07,15.63-6.07a6.49,6.49,0,0,1,3.9,1,3.39,3.39,0,0,1,1.2,3c0,2.47-3.41,7.83-10.3,16.1l-1.51,1.89-48.2,57.84,25.65-2.07c11.69-11.65,21.91-21.36,31-29.2,8.89-7.72,17-14.26,24.58-19.09a65.09,65.09,0,0,0-3.6,8.44,16.94,16.94,0,0,0-1.14,5.54c0,3.74,1.29,6.51,4.06,8.49s6.37,2.9,11.51,2.9c5.72,0,11.81-2.18,19-6.4s10.55-7.5,10.55-9.86a1.14,1.14,0,0,0-.5-.95,8.22,8.22,0,0,0-1.63-.44s-3.26,2.42-9.62,7-12.43,7-18.58,7a9.63,9.63,0,0,1-6.62-2.23,6.76,6.76,0,0,1-2.58-5.71,21.08,21.08,0,0,1,3.47-11.89c2.34-3.49,6.34-6.86,11.63-9.94,1.36-.78,3.2-2,5.82-3.41,14.42-8.59,21.78-14.55,21.78-18,0-1.42-.87-2.59-2.5-3.54a12.9,12.9,0,0,0-6.12-1.31c-6.89,0-12.52,1.73-16.92,5.48s-9,10.55-13.84,20.77c-7.54,5.14-18.24,12.84-31.87,23.27l-.4.31c7.45-10,12.18-17.57,14.58-22.5a33.61,33.61,0,0,0,3.48-14.63,12.08,12.08,0,0,0-4.22-9.11,15.25,15.25,0,0,0-10.45-3.62c-5.14,0-10.74,1.76-16.92,5.35s-15.2,10.46-27.29,20.92l-11.87,10.28c-3.39,3.16-5.66,5.21-7,6.57-1.1,1.46-1.69,2.53-1.69,3.28,0,.23.31.44.53.74a2.51,2.51,0,0,0,1.23.26" style="fill:#fff"/><rect x="378.98" y="158.16" width="13.07" height="16.13" style="fill:#fff"/><polygon points="392.06 195.08 378.98 195.07 378.98 282.1 392.03 282.1 392.06 195.08" style="fill:#fff"/><path d="M517.66,236.25c-4.62-2.36-12-3.74-22.27-4.2q-11.31,0-22.83-.12c-19.38-.16-30.54-.79-33.34-1.86-4.13-1.62-6.06-5.16-6.06-10.62,0-5.76,2.8-9.71,8.27-12.06,3.91-1.79,9.29-2.75,16.27-2.95h17.54c16.82,0,27.28,1.17,31.5,3.42,3,1.56,4.55,4.87,4.55,9.8v1.89h13.07v-1.34c0-8.59-2.3-14.61-7-18-4.58-3.21-12.06-5.1-22.82-6.05-3.6-.21-11.48-.36-23.91-.36-21,0-34.66,1.71-41.37,5s-10,10.17-10,20.71c0,9.63,2.55,16.1,8,19.32,4,2.53,11.23,4,21.87,4.35h22.64c15.07.05,24.67.34,28.7.66,4.52.37,7.82,1.56,9.81,3.54,2,2.13,3,5.61,3,10.28,0,5.61-2.31,9.76-6.95,12.18A28.56,28.56,0,0,1,496,272.49c6.09,0,4.46.16-5.1.24a49.06,49.06,0,0,0,5.1-.24l-20.52,0q-33.27,0-39.71-4c-2.95-1.89-4.55-6.38-4.55-13.57v-2.18H418V255c0,5.83.28,10.12,1.23,12.95A17.21,17.21,0,0,0,427,278.06c4.16,2.66,11.66,4.34,22.21,5,3.23.19,11,.28,23,.28s19,0,21.81-.16c9.08-.5,16.28-1.62,21.41-3.68,7.85-3.24,11.85-10.71,11.85-22.49,0-10.66-3.17-17.61-9.63-20.8" style="fill:#fff"/><path d="M496,272.49a49.06,49.06,0,0,1-5.1.24c9.56-.08,11.19-.24,5.1-.24" style="fill:#fff"/><path d="M664.51,248.43H653.38l-6.49-6.07c-4.95,4.14-10.21,7.19-20.52,7.19-17.53,0-20.64-9.81-20.64-13.86,0-7.17,2.8-11.13,15.84-16.69-5.14-4.64-7.41-7.2-7.41-11.77,0-6.09,5.78-11.65,16.61-11.65,11,0,15.69,5.52,15.69,10.72,0,7.47-7.45,11.42-12.58,13.92l12.85,11.55c1.7-3.25,1.88-4.42,2.87-8.31h8.09A30.49,30.49,0,0,1,652,237.1Zm-38.14-25.05c-7.54,3.67-12.18,6.06-12.18,11.78,0,6.64,8.92,8.72,12.67,8.72,6.31,0,11.69-2.08,15.35-5.88ZM638.21,207c0-4.79-4.64-5.89-7.47-5.89-7.29,0-8.18,3.93-8.18,5.7,0,3.48,4.12,7.26,6.86,9.19,3.63-1.9,8.79-4.65,8.79-9" style="fill:#fff"/><polygon points="172.48 217.12 292.82 217.17 292.79 283.84 345.42 283.86 345.45 110.53 292.85 110.5 292.82 174.53 172.48 174.5 172.48 110.47 119.82 110.46 119.76 283.76 172.45 283.8 172.48 217.12" style="fill:#fff"/><path d="M429.45,375.71h22.93c3.26,0,5.89-.15,7.81-.21a16.73,16.73,0,0,0,6.49-1.8c3.62-2.1,5.29-6.65,5.29-14.06a26.07,26.07,0,0,0-.89-7.83,10.11,10.11,0,0,0-5.46-5.91,23.57,23.57,0,0,0-7.14-1.47c-1,0-3.4-.08-7.24-.08H415.43l0,41.6h14.06Zm0-21.21,20.8,0c2.95,0,4.83.35,5.93,1s1.52,2.49,1.52,4.95c0,2.18-.6,3.65-2,4.31-1,.57-2.8.84-5.43.84l-20.8,0Z" style="fill:#fff"/><polygon points="481.31 344.35 493.45 344.4 493.45 385.98 481.31 385.98 481.31 344.35" style="fill:#fff"/><path d="M548.18,356.87V386l-11.46,0v-6.8a9,9,0,0,1-4.19,5.71c-2.17,1.09-5.93,1.73-11.15,1.73-7.06,0-12.07-1.27-14.59-4.15-2.09-2-3.15-5.39-3.15-10.1v-15.5h12.21v15c0,2.78,1,4.66,2.91,5.57a22.17,22.17,0,0,0,7.24.85c3.83,0,6.49-.53,7.84-1.68,1.56-1.07,2.45-3.35,2.45-6.52V356.87Z" style="fill:#fff"/><path d="M557,377.11h13c0,1.55,1.59,2.54,4.65,2.9.42.06,2.59.06,6.42.06,2.91,0,4.69-.06,5.61-.1,2.66-.32,3.87-1.31,3.87-2.61s-1.21-2.16-3.52-2.16a56.94,56.94,0,0,0-6.28-.17h-6A46.8,46.8,0,0,1,563,373.81c-3.65-1.11-5.6-3.73-5.6-7.81,0-4.72,2.16-7.56,6.24-8.63,3.13-.83,8.49-1.12,16.26-1.12,9.12,0,15,.62,17.5,1.77s3.69,3.41,3.8,6.85H588.43c-.24-1.09-1.45-1.59-3.58-1.94-.64,0-2.24-.06-4.86-.06-3,0-5,.06-5.61.06-3.09.4-4.44,1.12-4.47,2.42,0,1.12,1.2,1.74,3.3,2.08.46,0,2,.08,4.68.08h8.66c5.51,0,9.27.34,11.26,1.13,3.37,1.21,5.11,3.9,5.11,8,0,2.82-.75,5-2.2,6.48a12.55,12.55,0,0,1-6.78,2.81c-3.09.54-8.38.74-15.66.74-4.36,0-7.17,0-8.45-.06a25.47,25.47,0,0,1-8.23-1.67c-3.05-1.43-4.51-4-4.65-7.81" style="fill:#fff"/><path d="M630.11,386V344.43l36,0c3.76,0,6.21,0,7.17,0a24.54,24.54,0,0,1,7.14,1.49,10.25,10.25,0,0,1,5.39,5.88,21.8,21.8,0,0,1,1.07,7.84c0,7.42-1.85,12-5.33,14.08a16.84,16.84,0,0,1-6.53,1.78c-2,.08-4.47.22-7.7.22H644.38V386Zm14.27-20.32,20.76,0c2.63,0,4.44-.3,5.4-.83,1.38-.68,2.13-2.13,2.13-4.32,0-2.46-.64-4.2-1.67-5s-2.88-1-5.86-1H644.38Z" style="fill:#fff"/><path d="M766.63,344.46h12v7.84h-12Zm0,12.5h12v29.13h-12Z" style="fill:#fff"/><path d="M789.06,386.09l0-29.12h11.79v6.78a8.61,8.61,0,0,1,4-5.67c2.31-1.12,6-1.76,11.11-1.76,7.25,0,12.11,1.33,14.59,4.17,2.13,2,3.16,5.37,3.16,10.09v15.51H821.64V371.21c0-3-.95-4.81-2.84-5.6-1.27-.68-3.76-.92-7.24-.92-3.94,0-6.46.55-7.91,1.5-1.6,1.32-2.42,3.4-2.42,6.77v13.13Z" style="fill:#fff"/><path d="M870.88,373.61h9.23v2.26c0,4.15-.78,6.91-2.45,8.24-2.2,1.76-6.25,2.6-12.11,2.6-3.58,0-6.07,0-7.52-.17a14.45,14.45,0,0,1-6.89-2.32c-2.09-1.46-3.19-4.2-3.19-8.06v-11.9h-6.18V357H848v-6.75H860.3V357h19.81v7.29H860.3v9.56c0,2,.35,3.36.89,4,.78.81,2.13,1.33,4.36,1.33a9.34,9.34,0,0,0,4-.76c.86-.65,1.32-1.8,1.32-3.62Z" style="fill:#fff"/><path d="M728.32,392.47a25.66,25.66,0,0,1-11-2.2,26.76,26.76,0,0,1-9.3-6.06,25.33,25.33,0,0,1-6.07-9.3,26.57,26.57,0,0,1-2.2-11.09,27.38,27.38,0,0,1,3.72-14.24,29.37,29.37,0,0,1,10.65-10.45,28.24,28.24,0,0,1,14.16-3.87,28.69,28.69,0,0,1,14.24,3.88,29.49,29.49,0,0,1,10.51,10.46,28.29,28.29,0,0,1,3.87,14.26,29.34,29.34,0,0,1-3.87,14.42,28.78,28.78,0,0,1-10.51,10.59,27.34,27.34,0,0,1-14.24,3.6m0-1.09a27.76,27.76,0,0,0,13.85-3.92,25.19,25.19,0,0,0,10-9.94A26.12,26.12,0,0,0,756,363.86a28,28,0,0,0-2.13-10.56,32.51,32.51,0,0,0-5.89-8.69,31.62,31.62,0,0,0-8.91-5.94,26.83,26.83,0,0,0-10.76-2v3.81a22.25,22.25,0,0,1,9.16,1.84,21.61,21.61,0,0,1,7.74,5,24.61,24.61,0,0,1,5.15,7.46,25.27,25.27,0,0,1,1.81,9.09,23.42,23.42,0,0,1-3.13,11.82,26.29,26.29,0,0,1-8.83,8.68,23.54,23.54,0,0,1-11.9,3.1Z" style="fill:#fff"/><polygon points="745.82 366.17 710.93 366.17 710.93 361.46 745.82 361.48 745.82 366.17" style="fill:#e70b89"/><polygon points="730.7 381.39 726.02 381.37 726.02 346.42 730.7 346.42 730.7 381.39" style="fill:#e70b89"/></g></svg>